<?xml version="1.0" standalone="no"?>
<!DOCTYPE svg PUBLIC "-//W3C//DTD SVG 20010904//EN"
 "http://www.w3.org/TR/2001/REC-SVG-20010904/DTD/svg10.dtd">
<svg version="1.0" xmlns="http://www.w3.org/2000/svg"
 width="128.000000pt" height="128.000000pt" viewBox="0 0 128.000000 128.000000"
 preserveAspectRatio="xMidYMid meet">

<g transform="translate(0.000000,128.000000) scale(0.100000,-0.100000)"
fill="#000000" stroke="none">
<path d="M245 1271 c-91 -23 -173 -90 -215 -176 l-25 -50 0 -405 c0 -400 0
-406 23 -450 35 -72 75 -114 144 -151 l63 -34 405 0 405 0 51 27 c76 40 107
70 145 140 l34 63 0 405 0 405 -34 63 c-37 69 -79 109 -151 144 -44 23 -52 23
-430 25 -212 1 -398 -2 -415 -6z m831 -133 c21 -15 50 -44 64 -65 l25 -37 0
-396 0 -396 -25 -37 c-14 -21 -43 -50 -64 -65 l-39 -27 -397 0 -397 0 -39 27
c-21 15 -50 44 -64 65 l-25 37 0 397 0 397 30 43 c17 23 50 53 75 66 l44 24
387 -3 386 -3 39 -27z"/>
<path d="M610 950 c-12 -7 -16 -38 -20 -132 l-5 -123 -123 -5 c-126 -5 -142
-11 -142 -50 0 -39 16 -45 142 -50 l123 -5 5 -123 c5 -126 11 -142 50 -142 39
0 45 16 50 142 l5 123 123 5 c126 5 142 11 142 50 0 39 -16 45 -142 50 l-123
5 -5 123 c-5 126 -11 142 -50 142 -8 0 -22 -5 -30 -10z"/>
</g>
</svg>
